<svg xmlns="http://www.w3.org/2000/svg" xmlns:xlink="http://www.w3.org/1999/xlink" version="1.1" x="0px" y="0px" viewBox="0 0 100 100" style="enable-background:new 0 0 100 100;" xml:space="preserve">
	<path fill="white" d="M29.998,54c-2.205,0-4-1.794-4-4s1.795-4,4-4s4,1.794,4,4S32.203,54,29.998,54z M35.998,34c-2.205,0-4,1.794-4,4  s1.795,4,4,4s4-1.794,4-4S38.203,34,35.998,34z M35.998,58c-2.205,0-4,1.794-4,4s1.795,4,4,4s4-1.794,4-4S38.203,58,35.998,58z   M81.998,64c0,2.206-1.795,4-4,4c-2.183,0-5.856-1.825-9.719-4.664C66.916,63.773,65.482,64,63.998,64h-6.301  c-1.396,0-2.668,0.71-3.4,1.9c-0.732,1.187-0.797,2.638-0.172,3.881c0.566,1.136,0.812,2.183,0.812,3.278  c0,3.827-3.113,6.94-6.939,6.94c-8.516,0-16.66-3.64-22.346-9.985c-5.684-6.343-8.402-14.877-7.463-23.413  c1.523-13.779,12.631-24.886,26.408-26.41c18.174-2.016,33.4,12.155,33.4,29.809c0,1.484-0.228,2.916-0.664,4.279  C80.173,58.143,81.998,61.817,81.998,64z M64.171,59.983c-3.901-3.527-7.506-7.827-9.512-12.107  c-4.959-0.607-9.053-4.47-9.773-9.514l-0.869-6.079c-0.088-0.623,0.121-1.252,0.566-1.697c0.443-0.445,1.064-0.657,1.697-0.565  l6.08,0.868c5.044,0.72,8.906,4.815,9.513,9.774c4.28,2.005,8.58,5.61,12.107,9.511c0.001-0.058,0.017-0.115,0.017-0.173  c0-14.337-11.664-26-26-26c-0.965,0-1.959,0.057-2.959,0.167c-11.934,1.32-21.555,10.939-22.873,22.873  c-0.828,7.516,1.469,14.728,6.465,20.306C33.558,72.846,40.617,76,47.998,76c1.816,0,2.939-1.526,2.939-2.94  c0-0.47-0.104-0.916-0.309-1.326c-1.33-2.648-1.203-5.556,0.262-7.933C52.359,61.421,54.902,60,57.697,60h6.301  C64.056,60,64.113,59.984,64.171,59.983z M57.928,41.242c-0.349-3.238-2.851-5.925-6.133-6.394l-3.439-0.491l0.492,3.44  c0.468,3.282,3.155,5.784,6.392,6.133L57.928,41.242z M77.998,64c0-2.716-8.348-15.189-17.553-19.618l-2.066,2.065  C62.808,55.653,75.283,64,77.998,64z" />
</svg>
